<?xml version="1.0" encoding="UTF-8"?>
<svg version="1.1" viewBox="0 0 1036 948" width="259" height="237" xmlns="http://www.w3.org/2000/svg">
<path transform="translate(0)" d="m0 0h1036v948h-1036z" fill="#F6CAC7"/>
<path transform="translate(306,295)" d="m0 0h153l138 1 104 1 7 1v361l-124 1h-270l-11-1v-100l1-98 1-160z" fill="#F6CAC7"/>
<path transform="translate(308)" d="m0 0h400v288l-1 1h-73l-319-2-9-1-1-2 1-141 1-98z" fill="#F6CAC7"/>
<path transform="translate(717,297)" d="m0 0 88 1 188 1h38l5 1v360h-313l-7-2v-347z" fill="#F6CAC7"/>
<path transform="translate(303,668)" d="m0 0h404l1 1v279h-408l1-166 1-103z" fill="#F6CAC7"/>
<path transform="translate(0,292)" d="m0 0 176 1 76 1 44 1 1 1v56l-1 206-1 100-1 1-132 1h-162z" fill="#F6CAC7"/>
<path transform="translate(716)" d="m0 0h320v292l-207-1-83-1-29-1-1-2z" fill="#F6CAC7"/>
<path transform="translate(0)" d="m0 0h300l-2 232-1 53-1 1h-124l-104-1-68-1z" fill="#F6CAC7"/>
<path transform="translate(0,668)" d="m0 0h293l2 1-1 66-1 129-1 84h-292z" fill="#F6CAC7"/>
<path transform="translate(300)" d="m0 0h8v48l-1 95-1 143 328 2h73l1-288h8l1 96v193h31l81 1 194 1 13 1v8h-54l-177-1-81-1-7-1v361l6 1h263l50 1v8h-319l-1 280h-8l-1-279-404-1-1 114-1 162-1 4h-8v-84l1-129 1-57 1-9-295-1v-8l294-2 1-100 1-206v-56l-44-1-76-1-152-1-24-1v-8h68l106 1h122l1-53 2-223zm6 295-1 6-1 160-1 98v100l11 1h270l124-1v-361l-7-1-242-2z" fill="#030203"/>
<path transform="translate(834,784)" d="m0 0h11v50l2 13 4 6 5 4 7 2 10-1 6-4 4-5 2-5 1-11 1-49h11v49l2 15 3 4v2l4 2 5 2h13l9-6 3-6 1-23 1-39h11v58l-2 9-6 9-7 6-9 3h-15l-10-4-5-4-3-4-4 2-8 7-8 3h-14l-11-4-8-7-5-10-1-4z" fill="#030203"/>
<path transform="translate(129,126)" d="m0 0h7l5 3 4 6 16 42 12 31-1 4h-11l-4-10-3-10h-45l-2 9-4 9-2 2h-10l1-6 16-43 10-26 5-8z" fill="#030203"/>
<path transform="translate(508,432)" d="m0 0h17l2 1v6l-2 2-18 3-10 4-8 9-4 11v12l4 10 5 7 10 6 8 2 14 2 2 4-3 4-3 1h-12l-12-3-10-6-8-8-5-10-2-7v-16l3-10 7-11 10-8 10-4z" fill="#030203"/>
<path transform="translate(130,136)" d="m0 0 4 1 8 20 8 22v2h-36l1-5 13-35z" fill="#F6CAC7"/>
</svg>
